<?xml version="1.0" encoding="utf-8"?>
<!-- Generator: Adobe Illustrator 25.2.3, SVG Export Plug-In . SVG Version: 6.00 Build 0)  -->
<svg version="1.1"
	 id="svg8" inkscape:version="1.0.2-2 (e86c870879, 2021-01-15)" sodipodi:docname="saint patricks day shamrock.svg" xmlns:cc="http://creativecommons.org/ns#" xmlns:dc="http://purl.org/dc/elements/1.1/" xmlns:inkscape="http://www.inkscape.org/namespaces/inkscape" xmlns:rdf="http://www.w3.org/1999/02/22-rdf-syntax-ns#" xmlns:sodipodi="http://sodipodi.sourceforge.net/DTD/sodipodi-0.dtd" xmlns:svg="http://www.w3.org/2000/svg"
	 xmlns="http://www.w3.org/2000/svg" xmlns:xlink="http://www.w3.org/1999/xlink" x="0px" y="0px" viewBox="0 0 595.3 841.9"
	 style="enable-background:new 0 0 595.3 841.9;" xml:space="preserve">
<style type="text/css">
	.st0{fill-rule:evenodd;clip-rule:evenodd;fill:#007F3F;}
</style>
<path id="path2" sodipodi:nodetypes="ccsssssccccscsssccccccccccscsscsssscsssssscsssssssscccsssscssccccccsscsssscsscc" class="st0" d="
	M380.7,184.3c8.4,0,15.7,1.5,22.1,4.4c6.4,2.9,12.4,7,18.1,12.2c5.7,5.2,11.8,12.8,18.4,22.9c6.6,10.1,13.1,17.3,19.5,21.7
	c6.4,4.4,13.4,9,21,13.6c7.6,4.7,13.4,10,17.3,15.9c3.9,5.9,6.8,11.6,8.5,17c11.8,28.2-5.4,59.9-27.3,77
	c-8.6,6.6-17.1,11.9-25.4,15.9c-20.9,11-46.1,13.2-64.5,15.1c-21.9,2.2-33.2,3.7-33.9,4.4l-1.1,1.1l0.7,1.8
	c0.5,1.2,16.2,1.5,47.2,0.7c31-0.7,52.3,0.6,64.1,4.1c11.8,3.4,20.8,7.5,26.9,12.2c6.1,4.7,10.9,9.7,14.4,15.1
	c10.3,13.9,10.2,30.8,8.8,44.2c-1.9,32.1-19.9,40.2-34.7,59.7c-5.9,7.9-10.8,16-14.7,24.3c-3.9,8.4-7.2,14.4-10,18.1
	c-14,17.8-33.6,29.8-54.9,26.9c-10.3-1.5-19-4.8-26.2-10c-7.1-5.2-13.1-10.2-18.1-15.1c-17.4-17.1-27.2-34.6-31.7-56
	c-2.5-11.8-5.2-22.1-8.1-31l-4.4-13.3l-2.2,9.6c-1.5,6.4-1.5,20.4,0,42c1.5,21.6,4.7,38.8,9.6,51.6c4.9,12.8,9.5,21.7,13.6,26.9
	c4.2,5.2,9.1,10.3,14.7,15.5c5.7,5.2,8,10.4,7,15.9c-1,5.4-1.6,8.2-1.8,8.5l-0.4,0.4l-10.3-2.2c-6.9-1.5-13.6-5-20.3-10.7
	c-6.6-5.7-12.2-11.7-16.6-18.1c-4.4-6.4-8.6-14.7-12.5-25.1c-3.9-10.3-6.6-20.4-8.1-30.2c-1.5-9.8-1.6-27.6-0.4-53.4l1.8-38.7
	l-4.8,1.1c-3.2,0.7-5.5,3.3-7,7.7c-1.5,4.4-4.2,18.9-8.1,43.5c-3.9,24.6-7.9,40.5-11.8,47.9c-3.9,7.4-7.5,12.7-10.7,15.9
	c-3.2,3.2-7.2,6.5-12.2,10c-4.9,3.4-10.3,6.1-16.2,8.1c-5.9,2-15.2,2.2-28,0.7c-12.8-1.5-22.1-3.9-28-7.4
	c-42.3-19-25.6-40.4-69.3-84.8c-16.1-21-13.4-52.2-0.7-73c4.9-7.9,10.9-14.6,18.1-20.3c7.1-5.7,14.6-10,22.5-12.9
	c7.9-2.9,25.8-4.7,53.8-5.2c28-0.5,43.1-1.8,45.3-4.1l3.3-3.3l-1.8-1.8c-1.2-1.2-16.6-3.1-46.1-5.5s-50.9-6.6-64.1-12.5
	c-22.3-8.9-40.5-25.3-42-48.7c-0.5-9.3,1.1-18.6,4.8-27.6c3.7-9.1,11.7-18.8,24-29.1c18.2-12.3,32.6-20.3,43.8-34.6
	c13.8-26.4,19.7-40.7,46.9-49.4c7.9-2.5,14.7-3.4,20.6-2.9c5.9,0.5,12.8,2.5,20.6,5.9c7.9,3.4,14.9,8,21,13.6
	c6.1,5.7,10.7,11.7,13.6,18.1c2.9,6.4,5.2,14,6.6,22.9c1.5,8.8,3.6,25.6,6.3,50.1c2.7,24.6,4.5,36.9,5.5,36.9h1.5l1.1-3.7
	c0.7-2.5,2.1-17.9,4.1-46.4c2-28.5,3.7-44.5,5.2-47.9C314.4,206.3,347.4,184.5,380.7,184.3L380.7,184.3z"/>
</svg>
